<svg xmlns="http://www.w3.org/2000/svg" xmlns:xlink="http://www.w3.org/1999/xlink" width="650.899" height="390" xmlns:v="https://vecta.io/nano"><style><![CDATA[.S{fill:#263238}.T{fill:#455a64}.U{fill:#ae3ddd}.V{fill:#fff}.W{fill:#e0e0e0}.X{fill:#f5f5f5}.Y{opacity:.2}.Z{fill:#aa6550}.a{fill:#ffbe9d}.b{stroke-width:50}.c{fill:#fafafa}.d{fill:#eb996e}]]></style><g stroke="#4f7ee8" class="V"><g opacity=".048"><circle cx="331.402" cy="192" r="177" stroke="none"/><circle cx="331.402" cy="192" r="152" fill="none" class="b"/></g><g opacity=".048"><circle cx="331.408" cy="191.996" r="123.836" stroke="none"/><circle cx="331.408" cy="191.996" r="98.836" fill="none" class="b"/></g><g opacity=".03"><circle cx="331.407" cy="191.997" r="82.18" stroke="none"/><circle cx="331.407" cy="191.997" r="57.18" fill="none" class="b"/></g></g><g opacity=".14"><path d="M592.398 30.783a12.98 12.98 0 0 1-1.33 1.933l-3.5 4.44-3.688 4.287c-.496.607-1.045 1.168-1.642 1.675.42-.66.898-1.283 1.424-1.862l3.592-4.358 3.59-4.36c.47-.627.99-1.214 1.555-1.755z" class="W"/><path d="M583.204 126.95c2.79 4.433 6.07 8.536 9.78 12.232" class="V"/><path d="M592.985 139.18c-.62-.457-1.19-.977-1.7-1.55a54.59 54.59 0 0 1-6.943-8.674 11.15 11.15 0 0 1-1.137-2c.503.58.963 1.196 1.375 1.844l3.328 4.422s2.636 3.162 3.582 4.218a15.43 15.43 0 0 1 1.495 1.741z" class="W"/><path d="M517.563 138.85l9.774-12.058" class="V"/><path d="M527.337 126.792a74.36 74.36 0 0 1-4.73 6.157c-1.577 2.053-3.26 4.023-5.045 5.9a74.77 74.77 0 0 1 4.73-6.157c1.578-2.053 3.262-4.022 5.045-5.9zm-9.764-96.01a67.59 67.59 0 0 1 4.744 5.671 67.32 67.32 0 0 1 4.426 5.923 67.81 67.81 0 0 1-4.749-5.673 67.49 67.49 0 0 1-4.421-5.921z" class="W"/><path d="M106.595 46.33a49.78 49.78 0 0 1-5.286 4.812c-1.764 1.606-3.642 3.083-5.618 4.42a49.98 49.98 0 0 1 5.286-4.812 49.84 49.84 0 0 1 5.618-4.42zm-1.233-1.887a22.56 22.56 0 0 1-3.123 2.943 22.92 22.92 0 0 1-3.323 2.718 25.47 25.47 0 0 1 6.446-5.661zm29.82-25.296c.08.127-1.937 1.495-4.275 3.365l-4.23 3.42a27.26 27.26 0 0 1 8.506-6.785zm1.56-4.33c-1.292 1.264-2.7 2.402-4.206 3.4-1.405 1.137-2.916 2.137-4.5 3a28.69 28.69 0 0 1 4.206-3.4c1.406-1.136 2.916-2.137 4.5-3z" class="V"/><g class="W"><path d="M106.58 161.2h54.227v14.346H106.58z"/><path d="M176.866 161.202a1.72 1.72 0 0 1-.017-.261l-.018-.735-.04-2.823-.093-10.525.168.168-54.223.108c.122-.122-.278.275.272-.275v14.344l-.27-.27 38.643.123 11.406.077 3.084.036.807.017a1.96 1.96 0 0 1 .286.018 1.21 1.21 0 0 1-.251.018l-.774.017-3.026.036-11.345.078-39.1.122v-14.617l.28-.276 54.393.108v.168l-.093 10.625q-.027 1.786-.04 2.786l-.018.706a.92.92 0 0 1-.03.227zM54.503 92.253a1.9 1.9 0 0 1-.017-.26l-.018-.735-.04-2.823-.093-10.526.168.17-54.223.108c.122-.122-.278.275.273-.275v14.344l-.27-.27 38.643.123 11.406.077 3.084.036.808.017a1.95 1.95 0 0 1 .285.018 1.21 1.21 0 0 1-.251.018l-.774.017-3.026.036-11.346.07L.01 92.52V77.904l.28-.277 54.393.1v.168L54.6 88.53l-.04 2.786-.018.706a1.04 1.04 0 0 1-.028.23z"/><path d="M61.855 77.907a1.56 1.56 0 0 1-.021-.272l-.022-.76-.05-2.877-.107-10.436.2.2-32.58.078c-.248.247.334-.338.274-.275l-.01 14.344-.263-.263 23.306.125 6.8.072 1.83.034a5.96 5.96 0 0 1 .655.032c-.196.026-.393.037-.6.033l-1.776.034-6.73.072-23.747.125v-.265l-.01-6.956v-7.388c-.06.058.524-.524.278-.277l32.78.077v.2l-.107 10.556-.05 2.832a8.32 8.32 0 0 1-.051.955zM574.715 194.3a1.42 1.42 0 0 1-.017-.26l-.018-.736-.04-2.823-.094-10.525.17.168-54.223.1c.12-.123-.28.275.272-.276V194.3l-.27-.27 38.643.122 11.407.077 3.084.036.807.018a1.96 1.96 0 0 1 .286.018 1.25 1.25 0 0 1-.252.017l-.773.018-3.027.036-11.344.077-39.1.122v-14.615l.28-.276 54.392.108v.168l-.093 10.626-.042 2.785-.017.707a1.17 1.17 0 0 1-.027.226z"/><path d="M582.065 179.96a1.7 1.7 0 0 1-.021-.273l-.02-.76-.05-2.876-.108-10.437.2.2-32.58.078a13.11 13.11 0 0 1 .274-.274l-.01 14.344-.264-.264 23.307.125 6.79.073 1.83.033c.218-.002.437.01.654.033a3.8 3.8 0 0 1-.591.033l-1.776.033-6.73.073-23.748.124v-.265l-.01-6.956v-7.388c-.06.058.524-.525.278-.278l32.78.078v.2l-.108 10.557-.05 2.83a8.08 8.08 0 0 1-.049.956z"/></g><path d="M121.66 189.46l2.15 167.052H27.698V191.74z" class="X"/><path d="M69.88 190.716l.85 165.8H27.698V191.738zm48.76 1.752v34.168H73.112v-32.554z" class="W"/><path d="M102.944 201.867v5.047H89.016v-5.505zm-14.384 9.29h14.385v2.064H88.56z" class="X"/><path d="M118.64 312.2v34.168H73.112v-32.553z" class="W"/><path d="M102.944 321.6v5.047H89.016v-5.505zm-14.384 9.3h14.385v2.065H88.56z" class="X"/><path d="M118.64 230.985v34.168H73.112V232.6z" class="W"/><path d="M102.944 240.385v5.047H89.016v-5.506zm-14.384 9.3h14.385v2.064H88.56z" class="X"/><path d="M73.705 271.896h45.526v34.168H73.705z" class="W"/><path d="M103.23 287.295v4.744H90.142v-5.175zm-13.523 8.733h13.522v1.94H89.707z" class="X"/><path d="M145.568 131.744h54.227V146.1h-54.227z" class="c"/></g><path d="M646.77 358.533c0 .142-140.408.258-313.568.258-173.22 0-313.6-.116-313.6-.258s140.377-.257 313.6-.257l313.568.257z" class="S"/><g class="T"><path d="M417.307 280.794c-.175 1.82-11 77.22-11 77.22l4.155.018 13.92-75.85z"/><path d="M460.302 282.175l1.3 7.67-19.948 9.137-20.647-11.518-.87 1.544 19.435 10.922-23.872 10.934.642 1.632 25.21-11.452 24.28 13.643 7.876 43.326 4.155.018-10.342-77.025a21.95 21.95 0 0 0 4.243-1.673c7.578-3.992 8.6-12.3 8.435-22.512l.2-49.87c.017-4.12-.03-8.483-2.166-12.008-2.124-3.505-6.05-5.615-10.067-6.438s-8.167-.516-12.25-.165l-21.174 66.925c-6.66 1.957-12.828 4.828-17.48 9.628-2.203 2.077-3.717 4.778-4.34 7.74-.544 3.024.688 6.092 3.172 7.9 2.337 1.562 5.41 1.636 8.278 1.652l28.292.156c2.524.01 5.1.01 7.636-.165zm1.635 9.61l3.477 20.45-21.77-12.143z"/></g><path d="M331.7 167.61a9.66 9.66 0 0 1 3.31-.09c-2.266-.438-3.183-1.075-3.13-1.66.092-1 5.355-.516 7.812-.233a48.72 48.72 0 0 1-6.743-1.163c-1.152-.513.214-1.192 1.5-1.43 1.447-.27 10.075-.63 12.56-.865a1.47 1.47 0 0 0 1.492-1.666c-1-3.48.08-6.727.785-7.47s1.96-.02 1.8 1.1c-.054 1.227.06 2.456.337 3.652.184.963.53 1.887 1.024 2.734a38.94 38.94 0 0 0 1.568 2.467l34.347 27.587 4.954-4.335 10.838 12.83-8.443 8.07c-3.578 3.42-9.195 3.475-12.84.128L349.2 176.34l-12.744-4.43c-3.287-.916-4.58-1.524-4.367-2.128.28-.807.136-.508 6.348.305-.001.003-8.856-1.237-6.726-2.476z" class="a"/><path d="M341.218 170.375c-2.87-.064-5.72-.5-8.472-1.326a32.36 32.36 0 0 1 8.472 1.326zm.64-2.403a36.38 36.38 0 0 1-9.11-.867 36.8 36.8 0 0 1 9.111.867zm.17-2.268a33.06 33.06 0 0 1-8.631-.706 33.06 33.06 0 0 1 8.631.706z" class="d"/><path d="M347.445 311.082l3.158-7.924 14.88 5.82-4.5 11.642-.946-.3c-4.2-1.377-21.235-7.3-23.655-9.207-2.695-2.128 11.062-.03 11.062-.03z" class="T"/><g class="S"><path d="M361.33 320.36a1.5 1.5 0 0 1-.268-.072l-.752-.243-2.75-.94-8.993-3.33-8.878-3.63-2.66-1.17-.718-.33c-.086-.035-.168-.078-.246-.127a1.51 1.51 0 0 1 .261.091l.733.3 2.685 1.112 8.895 3.577 8.97 3.38 2.73 1 .74.276a1.4 1.4 0 0 1 .253.105z"/><path d="M341.118 312.94a4.22 4.22 0 0 0-.519-2.885 2.58 2.58 0 0 1 .519 2.885zm5.262-.513c-.052.01-.163-.327-.247-.754-.08-.256-.1-.527-.056-.8.052-.01.163.327.247.754a1.68 1.68 0 0 1 .056.791zm1.454-.167c-.048.025-.222-.224-.388-.555s-.263-.618-.215-.642.22.224.388.555.262.62.215.642zm1.31-1.107a1.9 1.9 0 0 1-.815-.2c-.43-.163-.765-.336-.746-.386a1.9 1.9 0 0 1 .815.2c.43.163.764.336.746.386z"/><path d="M349.795 310.265c-.655.077-1.313-.124-1.813-.555a5.14 5.14 0 0 1 .905.283 5.04 5.04 0 0 1 .908.272zm-3.413.668a2.99 2.99 0 0 1-.954-.38c-.33-.178-.64-.386-.93-.622-.18-.137-.345-.294-.5-.468-.088-.1-.13-.25-.12-.4a.4.4 0 0 1 .294-.326c.896-.075 1.72.494 1.968 1.36a1.84 1.84 0 0 1 .063.76.59.59 0 0 1-.076.268 2.91 2.91 0 0 0-.117-.986 1.85 1.85 0 0 0-.609-.85 1.59 1.59 0 0 0-1.17-.367c-.2.053-.206.255-.077.422.134.16.284.308.448.44.278.236.575.45.886.64l.886.5z"/><path d="M346.12 310.882c-.04-.246.014-.498.15-.708.127-.24.3-.446.534-.6a1.03 1.03 0 0 1 .986-.177c.186.12.24.37.122.557-.082.143-.194.267-.33.363a3.12 3.12 0 0 1-.678.4 1.46 1.46 0 0 1-.7.173c-.008-.03.258-.1.64-.3.222-.117.432-.257.625-.418.2-.15.442-.48.22-.616-.274-.07-.565-.012-.8.16-.207.133-.382.3-.513.516-.1.208-.197.425-.265.65zm16.496 5.286c-.016.033-.4-.207-1.114-.4a5.01 5.01 0 0 0-5.112 1.585c-.477.55-.666.97-.7.952a.9.9 0 0 1 .116-.3 4.21 4.21 0 0 1 .476-.739c1.245-1.58 3.334-2.227 5.254-1.63a4.2 4.2 0 0 1 .81.341.95.95 0 0 1 .27.181zm.876-6.796a27.9 27.9 0 0 1-1.064 3.108c-.356 1.037-.772 2.052-1.246 3.04a57.67 57.67 0 0 1 2.3-6.147zm-9.162 6.838a13.07 13.07 0 0 1-4.36-1.656c.025-.05.973.4 2.177.843l2.184.813zm2.92 1.135c.022.05-.16.175-.346.358s-.318.36-.368.338.016-.265.233-.476.462-.27.48-.22zm1.633-.94c.023.05-.134.167-.35.263s-.407.134-.428.086.134-.167.35-.263.4-.135.428-.086zm1.817-.01c-.03.046-.227-.033-.476-.04s-.452.046-.478 0 .18-.205.487-.2.5.192.467.23zm1.235.143c0 .053-.115.1-.258.1s-.258-.044-.257-.1.115-.1.258-.1.257.046.257.1z"/></g><path d="M387.904 354.047l.155-8.528 15.977.187-.093 12.48-.992.05c-4.41.193-22.445.672-25.382-.256-3.275-1.035 10.335-3.934 10.335-3.934z" class="T"/><g class="S"><path d="M404.172 357.82a1.7 1.7 0 0 1-.274.027l-.8.038-2.905.093-9.6.062-9.59-.26-2.9-.153-.79-.055c-.092-.003-.183-.014-.273-.032.09-.01.183-.013.275-.007l.79.02 2.9.092 9.585.2 9.586-.006 2.905-.03h.79c.093-.004.185 0 .277.014z"/><path d="M382.642 358.022a4.23 4.23 0 0 0-1.5-2.515 2.58 2.58 0 0 1 1.5 2.515zm4.74-2.34c-.045.03-.268-.25-.5-.62s-.378-.692-.333-.72.268.25.5.618.38.692.333.72zm1.297-.67c-.036.04-.286-.132-.56-.382s-.464-.486-.427-.525.286.132.56.382.468.486.427.525zm.84-1.497a1.88 1.88 0 0 1-.835.1 1.86 1.86 0 0 1-.834-.1 3.65 3.65 0 0 1 1.669 0z"/><path d="M389.8 352.453c-.585.305-1.272.35-1.892.12a5.2 5.2 0 0 1 .947-.054c.312-.05.63-.074.945-.067zm-2.954 1.83c-.34.054-.688.048-1.027-.018a6.01 6.01 0 0 1-1.09-.253 2.98 2.98 0 0 1-.623-.266.55.55 0 0 1-.251-.322.4.4 0 0 1 .16-.408c.812-.388 1.785-.146 2.322.576a1.83 1.83 0 0 1 .328.689.58.58 0 0 1 .024.278c-.1-.318-.256-.616-.458-.882a1.85 1.85 0 0 0-.871-.579 1.6 1.6 0 0 0-1.225.069c-.164.12-.1.312.078.423a3.16 3.16 0 0 0 .574.253 7.09 7.09 0 0 0 1.054.286l1.005.154z"/><path d="M386.6 354.33a1.02 1.02 0 0 1-.111-.715c.035-.268.134-.524.3-.746a1.03 1.03 0 0 1 .86-.514.41.41 0 0 1 .311.478 1.11 1.11 0 0 1-.18.456 3.06 3.06 0 0 1-.492.616c-.16.183-.364.324-.6.4-.018-.026.206-.183.493-.5a3.63 3.63 0 0 0 .437-.61c.143-.215.244-.6-.013-.654-.258-.028-.522.225-.68.428a1.68 1.68 0 0 0-.3.664c-.028.228-.035.458-.022.688zm17.295-.885c0 .037-.457-.048-1.18.03a5.01 5.01 0 0 0-4.221 3.289c-.252.682-.28 1.142-.317 1.137-.018-.107-.018-.215 0-.322a4.18 4.18 0 0 1 .184-.86c.607-1.917 2.332-3.26 4.34-3.38a4.19 4.19 0 0 1 .879.033.96.96 0 0 1 .317.075zm-1.583-6.665a56.05 56.05 0 0 1 .011 6.567 55.47 55.47 0 0 1-.011-6.567zm-6.154 9.632a8.98 8.98 0 0 1-2.335.206 9.13 9.13 0 0 1-2.335-.213c0-.056 1.048.02 2.335.02l2.335-.013zm3.132.03c.04.04-.088.22-.2.458s-.17.45-.224.446-.08-.254.048-.528.34-.416.376-.376zm1.196-1.457c.038.038-.067.2-.235.37s-.333.27-.37.23.067-.2.234-.368.334-.27.37-.232zm1.696-.65c-.012.053-.224.05-.46.13s-.406.2-.447.167.095-.257.387-.35.537.004.52.054zm1.2-.305c.02.05-.074.13-.206.182s-.257.05-.275 0 .074-.13.207-.18.26-.05.274-.001z"/></g><path d="M417.908 124.272a11.24 11.24 0 0 1-4.025-4.11 5.9 5.9 0 0 1-.069-5.575 4.05 4.05 0 0 1 5-1.752 4.91 4.91 0 0 1 3.26-5.117 7.87 7.87 0 0 1 5.158.521c1.596.75 3.258 1.35 4.965 1.79 2.463.45 4.987-.2 7.492-.152a6 6 0 0 1 3.075.737c1.737 1.075 2.328 3.32 2.424 5.358.94-.006 1.8.534 2.2 1.385a5.2 5.2 0 0 1 .428 2.692 13 13 0 0 1-3.045 7.631" class="T"/><circle cx="420.535" cy="134.335" r="7.116" class="U"/><path d="M431.586 112.825c-7.375.001-13.39 5.907-13.53 13.28-.13 6.712-.174 13.87.156 15.947 1.342 8.448 7.818 9.523 7.818 9.523l.123 10.32c.015 4.79 4.178 8.756 9.3 8.864 5.074.107 9.2-3.613 9.265-8.354l.4-35.9a13.53 13.53 0 0 0-13.53-13.681z" class="a"/><g class="S"><path d="M419.844 130.128c-.006.587.457 1.072 1.044 1.093a1.04 1.04 0 0 0 1.117-.977c.005-.587-.457-1.07-1.043-1.094a1.04 1.04 0 0 0-1.118.978zm-.238-1.215c.134.14.956-.466 2.12-.463 1.165-.014 2.02.585 2.147.443.062-.063-.075-.32-.447-.6a2.97 2.97 0 0 0-1.719-.53c-.606-.002-1.198.2-1.688.545-.356.275-.48.53-.414.594zm11.894 1.214c-.006.587.457 1.072 1.044 1.093a1.04 1.04 0 0 0 .765-.253 1.03 1.03 0 0 0 .352-.724c.006-.587-.456-1.072-1.043-1.094a1.04 1.04 0 0 0-1.118.978z"/><path d="M431.068 129.13c.135.14.957-.466 2.12-.463 1.165-.014 2.02.586 2.147.443.062-.063-.073-.318-.447-.6a2.97 2.97 0 0 0-1.719-.53 2.85 2.85 0 0 0-1.688.546c-.358.274-.48.53-.414.593zm-4.23 8.648a7.8 7.8 0 0 0-1.894-.342c-.3-.03-.58-.1-.63-.293a1.52 1.52 0 0 1 .2-.883l.88-2.267a39.14 39.14 0 0 0 1.977-5.93 39.09 39.09 0 0 0-2.45 5.757l-.843 2.28a1.73 1.73 0 0 0-.155 1.17.75.75 0 0 0 .49.435 2.02 2.02 0 0 0 .505.07 7.54 7.54 0 0 0 1.919.004z"/></g><path d="M426.03 151.575a21.5 21.5 0 0 0 11.315-3.018c0 0-2.745 5.8-11.2 5.013z" class="d"/><path d="M430.27 138.585c-.2-.012-.193 1.254-1.275 2.152s-2.43.76-2.44.936c-.018.08.3.247.87.262.74.01 1.463-.24 2.037-.7.55-.45.905-1.095.99-1.8.047-.534-.094-.848-.18-.84z" class="S"/><path d="M430.767 124.56c.115.318 1.28.167 2.648.332 1.37.138 2.474.538 2.656.254.08-.136-.1-.434-.557-.74-1.207-.762-2.697-.927-4.04-.445-.503.2-.753.45-.706.6zm-10.73.977c.2.266 1.008-.01 1.974-.023.965-.046 1.783.178 1.97-.1.083-.134-.046-.4-.4-.65a2.86 2.86 0 0 0-3.18.1c-.342.273-.456.545-.365.674z" class="T"/><path d="M444.042 129.47c.12-.058 4.885-1.672 4.935 3.256s-4.906 3.963-4.917 3.82-.018-7.077-.018-7.077z" class="a"/><path d="M445.546 134.665c.022-.016.087.06.232.124.205.085.435.087.642.006a2.12 2.12 0 0 0 .964-1.915c.008-.423-.08-.842-.253-1.227a.99.99 0 0 0-.653-.653.44.44 0 0 0-.5.241c-.064.138-.033.237-.058.245s-.107-.08-.07-.285c.026-.122.094-.232.19-.3a.65.65 0 0 1 .474-.131 1.21 1.21 0 0 1 .9.755c.214.424.32.895.312 1.37a2.23 2.23 0 0 1-1.23 2.141.92.92 0 0 1-.787-.122c-.155-.12-.183-.23-.165-.24z" class="d"/><path d="M417.032 121.185s4.362 2.112 10.04-.723c3.726-1.86 8.068-2.767 9.025-2.02s1.16 4.587 4.85 5.71c0 0-.254 7.323 2.666 7.062s2.9-13.106 2.9-13.106l-8.626-6.37-9.38-.742-7.58 3.078-4.185 3.166z" class="T"/><g class="U"><path d="M437.372 133.635a7.12 7.12 0 0 0 7.116 7.116 7.12 7.12 0 0 0 7.116-7.116 7.12 7.12 0 0 0-7.116-7.116c-1.887 0-3.697.75-5.032 2.084s-2.084 3.144-2.084 5.032z"/><path d="M441.772 128.586s.28-15.165-9.363-19.39h4.328s7.653 1.118 8.4 18.2"/></g><path d="M441.534 133.635c0 1.63 1.323 2.954 2.954 2.954s2.954-1.323 2.954-2.954-1.323-2.954-2.954-2.954c-.783 0-1.535.31-2.09.865s-.865 1.305-.865 2.09z" class="Y"/><path d="M442.27 135.354a3.5 3.5 0 0 0 1.469.921 3.03 3.03 0 0 0 1.846-.036c1.5-.586 2.23-2.265 1.654-3.76a3.03 3.03 0 0 0-1.221-1.385 3.5 3.5 0 0 0-1.671-.46c.157-.037.32-.05.48-.038a2.94 2.94 0 0 1 1.264.372 3.11 3.11 0 0 1 1.323 1.436 3.07 3.07 0 0 1-.038 2.38c-.332.757-.955 1.345-1.728 1.635a3.1 3.1 0 0 1-1.953 0 2.92 2.92 0 0 1-1.128-.68 1.55 1.55 0 0 1-.298-.385zm-1.987-1.796a3.26 3.26 0 0 1 .093-1.037 4.18 4.18 0 0 1 1.524-2.363 4.27 4.27 0 0 1 4.052-.639 4.29 4.29 0 0 1 0 8.076 4.27 4.27 0 0 1-4.053-.638 4.19 4.19 0 0 1-1.523-2.364 3.25 3.25 0 0 1-.093-1.036 8.98 8.98 0 0 0 .171 1.017 4.19 4.19 0 0 0 1.534 2.268c1.696 1.28 4.087 1.057 5.518-.514s1.43-3.972 0-5.542-3.822-1.793-5.518-.514c-.75.563-1.3 1.36-1.534 2.268a8.94 8.94 0 0 0-.171 1.017zm-26.09-18.892c.025.01-.2.4-.418 1.118a1.63 1.63 0 0 0 .093 1.319 3.75 3.75 0 0 0 1.335 1.224c1.434.736 3.082.938 4.65.57a16.24 16.24 0 0 0 5.37-2.356 31.14 31.14 0 0 1 5.215-2.85 5.33 5.33 0 0 1 2.58-.367 3.51 3.51 0 0 1 2.008 1.05 4.95 4.95 0 0 1 1.3 2.973 5.41 5.41 0 0 1 .008 1.2c-.014-.102-.02-.206-.017-.3a8.49 8.49 0 0 0-.071-.882 4.95 4.95 0 0 0-1.322-2.88 3.37 3.37 0 0 0-1.928-.984 5.2 5.2 0 0 0-2.492.376 31.83 31.83 0 0 0-5.174 2.848c-1.652 1.117-3.497 1.92-5.44 2.366a6.87 6.87 0 0 1-4.759-.629 3.82 3.82 0 0 1-1.36-1.29 1.71 1.71 0 0 1-.071-1.4 5.36 5.36 0 0 1 .493-1.095zm22.76 5.75a2.45 2.45 0 0 1 .1-.333l.263-.952c.302-1.172.304-2.402.006-3.575a4.8 4.8 0 0 0-1.215-2.124 5.17 5.17 0 0 0-2.48-1.3 6.98 6.98 0 0 0-3.121.035 12 12 0 0 0-3.134 1.277l-5.6 3.5a9.82 9.82 0 0 1-2.723 1.012 3.27 3.27 0 0 1-2.463-.482 3.1 3.1 0 0 1-1.238-1.671c-.146-.513-.16-1.055-.037-1.575a2.94 2.94 0 0 1 .384-.92 1.53 1.53 0 0 1 .211-.275 3.6 3.6 0 0 0-.517 1.211 3.1 3.1 0 0 0 .069 1.524 2.99 2.99 0 0 0 1.208 1.584 3.12 3.12 0 0 0 2.353.434 9.77 9.77 0 0 0 2.663-1.012c1.8-.934 3.542-2.357 5.6-3.522a12.12 12.12 0 0 1 3.191-1.294c1.053-.25 2.15-.26 3.206-.023a5.26 5.26 0 0 1 2.559 1.364 4.92 4.92 0 0 1 1.235 2.206 7.1 7.1 0 0 1-.068 3.632c-.1.434-.26.86-.442 1.268z" class="S"/><g class="U"><path d="M465.383 181.427l-7.195 35.945 1.284 26.94-51.32-1.665 4.854-29.968.037-19.52-6.624 8.393-14.02-16.363 16.454-17.508a28.53 28.53 0 0 1 11.061-7.161 18.4 18.4 0 0 1 6.221-1.329 35.87 35.87 0 0 0 19.076.185l1.406.167c10.268 1.302 18.13 9.772 18.664 20.108z"/><path d="M446.404 159.52s19.872.15 22.333 21.14l1.235 15.594-18.015-.352z"/></g><path d="M467.086 173.333l-.688.06c-.662.018-1.324-.038-1.973-.166a18.14 18.14 0 0 1-3.01-.88l-3.9-1.4c-1.588-.52-3.278-.647-4.925-.37-1.878.387-3.665 1.127-5.266 2.18-1.72 1.067-3.373 2.42-5.16 3.724a20.93 20.93 0 0 1-6.015 3.265c-4.26 1.4-8.884 1.15-12.977-.674a36.79 36.79 0 0 1-4.979-2.928 40.67 40.67 0 0 0-4.29-2.593 12.49 12.49 0 0 0-6.993-1.457c-.652.085-1.3.248-1.905.484l-.633.273s.207-.118.617-.312c.612-.255 1.254-.43 1.9-.524a12.43 12.43 0 0 1 7.068 1.406c1.493.77 2.935 1.63 4.32 2.58a37.07 37.07 0 0 0 4.964 2.9 17.95 17.95 0 0 0 12.834.651 20.8 20.8 0 0 0 5.961-3.232c1.783-1.3 3.442-2.65 5.18-3.722a15.24 15.24 0 0 1 5.336-2.188c1.674-.275 3.4-.138 5 .4 1.478.445 2.752 1 3.9 1.43a18.76 18.76 0 0 0 2.984.909 9.61 9.61 0 0 0 1.958.2c.444-.018.682-.018.682-.018zm-57.366 23.02a3.2 3.2 0 0 1-.778-.293 5.53 5.53 0 0 1-1.734-1.456 10.45 10.45 0 0 1-1.613-2.95l-1.387-3.85a8.27 8.27 0 0 0-5.256-4.816 9.67 9.67 0 0 0-3.028-.39 4.41 4.41 0 0 1 .827-.068 7.78 7.78 0 0 1 2.243.319 8.29 8.29 0 0 1 5.4 4.874c.58 1.346.937 2.692 1.376 3.867a10.67 10.67 0 0 0 1.55 2.924 5.71 5.71 0 0 0 2.4 1.84zm40.5-4.6s-.127-.055-.36-.18a7.81 7.81 0 0 0-1.063-.434 9.27 9.27 0 0 0-4.177-.236 20.63 20.63 0 0 0-5.893 2.079 27.89 27.89 0 0 1-7.222 2.7 22.06 22.06 0 0 1-13.712-1.817 21.8 21.8 0 0 1-3.605-2.254l-1.175-1.024a6.09 6.09 0 0 0 .322.242l.9.718a23.86 23.86 0 0 0 3.616 2.2c1.892.9 3.904 1.523 5.973 1.85a21.46 21.46 0 0 0 7.636-.1 28.19 28.19 0 0 0 7.181-2.671 20.41 20.41 0 0 1 5.954-2.051c1.412-.232 2.858-.13 4.223.3a5.37 5.37 0 0 1 1.402.687zm19.235-4.05a2.86 2.86 0 0 1-.668.44c-.665.313-1.388.48-2.123.5a9.92 9.92 0 0 1-3.192-.5 34.86 34.86 0 0 0-3.783-1.062 16.61 16.61 0 0 0-7.064.216 18.25 18.25 0 0 0-2.06.653 7.25 7.25 0 0 1-.744.283 12.41 12.41 0 0 1 2.768-1.077 16.1 16.1 0 0 1 7.138-.277 32.72 32.72 0 0 1 3.8 1.083 10.05 10.05 0 0 0 3.134.54 5.37 5.37 0 0 0 2.092-.418c.464-.212.7-.388.702-.37zm-14.078 23.054l-.426-.158-1.222-.435a16.97 16.97 0 0 0-4.7-.694 28.3 28.3 0 0 0-7 .9c-2.6.626-5.365 1.6-8.316 2.5a35.45 35.45 0 0 1-8.526 1.7 18 18 0 0 1-7.012-1.008 12.1 12.1 0 0 1-4.088-2.468 9.21 9.21 0 0 1-.886-.958l-.277-.36c.028-.025.384.5 1.217 1.258a12.33 12.33 0 0 0 4.084 2.39c2.233.77 4.595 1.095 6.953.956a35.84 35.84 0 0 0 8.476-1.711l8.33-2.485c2.303-.585 4.672-.873 7.048-.858a16.35 16.35 0 0 1 4.723.764 10.14 10.14 0 0 1 1.621.665zm.698 18.7l-.458-.138c-.437-.132-.882-.236-1.332-.312a13.14 13.14 0 0 0-4.991.268c-2.408.647-4.748 1.53-6.984 2.633a39.5 39.5 0 0 1-4.135 1.62c-1.52.475-3.092.767-4.68.87-3.072.17-6.15-.173-9.1-1.016a48.49 48.49 0 0 1-7.036-2.592l-4.55-2.2-1.22-.63-.42-.232a6.12 6.12 0 0 0 .437.2l1.238.594 4.575 2.135a49.8 49.8 0 0 0 7.026 2.543c2.94.826 5.997 1.162 9.046.993a20 20 0 0 0 4.636-.858 39.51 39.51 0 0 0 4.112-1.6 37.38 37.38 0 0 1 7.028-2.6 12.9 12.9 0 0 1 5.037-.205 7.49 7.49 0 0 1 1.783.527z" class="c"/><path d="M456.855 164.486l-.527.156a4.86 4.86 0 0 0-1.416.649 10.05 10.05 0 0 0-3.415 4.546 20.87 20.87 0 0 0-1.185 3.8 15.21 15.21 0 0 0-.305 2.194c-.028.75.042 1.547.066 2.353l.73 18.062-.1-.095 14 .037 4.06.03 1.46.034-1.46.034-4.06.03-14.095.037v-.095l-.72-18.058-.057-2.374a15.25 15.25 0 0 1 .319-2.22 20.72 20.72 0 0 1 1.218-3.824 10 10 0 0 1 3.5-4.556 4.64 4.64 0 0 1 1.448-.621l.54-.117zm-43.8 13.754c.057 0 .1 6.52.1 14.564l-.1 14.566c-.055 0-.1-6.52-.1-14.566l.1-14.564z" class="S"/><path d="M413.027 201.62c7.434 10 15.28 20.93 25.055 28.655a20.58 20.58 0 0 0 6.774 3.9c2.527.845 5.303.472 7.517-1 .227-.14.4-.355.488-.607.137-.57-.5-1-1.028-1.25-8.643-4.132-14.8-11.98-22.17-18.115-5.026-4.19-16.636-11.576-16.636-11.576" class="Y"/><path d="M405.2 193.05c1.215-.89 6.056 5.727 5.822 3.682s-6.842-7.38-5.535-8.258c1.7-1.14 6.646 5.882 7.108 6.444.448.546 1.272-.107.83-.59-.637-.7-7.15-8.186-5.49-9.323.92-.63 1.863 1.166 1.863 1.166s5.59 7.47 6.356 6.906-2.358-5.072-3.52-6.512c-1.15-1.423-.954-2.566.086-2.568.71 0 4.372 4.323 5.49 5.775s4.113 5.49 4.22 2.26c0-.05.01-.1.01-.148.02-3.185 1.09-5.63 1.883-6.128a1.1 1.1 0 0 1 1.587 1.183c-.005.156-.04.31-.108.45-.03.062-.055.154-.084.226-.24 1.073-.366 2.168-.38 3.267-.035.977.098 1.953.392 2.885a41.1 41.1 0 0 0 .967 2.735l.488.588 27.065 15.3-.74-15.66v-.62l15.945.156.28 20.83a26.64 26.64 0 0 1-.614 6.168c-.69 3.078-1.795 5.918-4.445 7.686-6.058 4.043-15.83 2.814-21.222-2.085l-27.13-24.65c-2.978-2.22-5.833-4.602-8.552-7.133-3.32-3.387-3.028-3.698-2.575-4.028z" class="a"/><g class="S"><path d="M459.583 242.048s-76.388-15.72-83-12.607-30.4 77.915-30.4 77.915l19.2 7.628 24.935-60.934s52.012 20.25 60.357 18.532 8.908-30.534 8.908-30.534z"/><path d="M425.512 245.508c-1.042.346-41.18 13.484-43.97 18.685s2.313 87.832 2.313 87.832h23.3l-.013-78.25 43.948-1.107z"/></g><g class="T"><path d="M451.32 272.663c-.218-.004-.435-.03-.647-.08l-1.835-.328-6.72-1.355a322.66 322.66 0 0 1-21.947-5.464 253.22 253.22 0 0 1-11.874-3.77c-3.606-1.287-6.84-2.492-9.5-3.634-1.342-.545-2.536-1.084-3.582-1.56l-2.668-1.257-1.664-.84a3.03 3.03 0 0 1-.564-.324 3.13 3.13 0 0 1 .609.231l1.7.752c.732.34 1.64.734 2.7 1.176l3.6 1.487c2.673 1.1 5.9 2.264 9.518 3.523 3.62 1.22 7.626 2.5 11.862 3.723 8.476 2.44 16.246 4.3 21.883 5.6l6.68 1.514 1.815.422c.217.04.43.102.633.185zm-70.383 12.123a6.4 6.4 0 0 1-.205-1.294l-.37-3.545-.482-5.263a24.01 24.01 0 0 1 0-6.516 10.15 10.15 0 0 1 3.284-5.627 17.2 17.2 0 0 1 4.493-2.876 35.46 35.46 0 0 1 3.333-1.305 6.23 6.23 0 0 1 1.262-.365c.038.092-1.736.7-4.437 2a17.79 17.79 0 0 0-4.328 2.894c-1.586 1.412-2.674 3.298-3.1 5.378a24.73 24.73 0 0 0-.033 6.381l.372 5.272.206 3.558c.047.435.048.873.005 1.308z"/><path d="M436.946 278.833c-6.818-.45-3.612-10.233-3.443-21.13.1-6.83 4.644-13.532 9.6-18.24a23.35 23.35 0 0 1 8.692-4.854 54.02 54.02 0 0 1 26.361-1.692s12.897 49.483-41.2 45.915zm-220.366-.075l29.818-.164c3.024-.017 6.262-.1 8.725-1.74a8.45 8.45 0 0 0 3.343-8.323 15.63 15.63 0 0 0-4.573-8.158c-4.9-5.058-11.4-8.086-18.422-10.147l-22.314-70.538c-4.3-.37-8.68-.694-12.9.174s-8.37 3.1-10.6 6.786c-2.252 3.715-2.3 8.3-2.283 12.657q.108 26.28.214 52.56c-.164 10.772.9 19.52 8.9 23.726a23.15 23.15 0 0 0 4.472 1.763c-.17 1.92-10.9 81.18-10.9 81.18l4.38-.018 8.3-45.663 25.588-14.376 26.57 12.065.676-1.72-25.16-11.52 20.484-11.5-.916-1.628L228.2 296.3l-21.032-9.628 1.374-8.083c2.675.2 5.388.2 8.047.17zm9.5 18.72l-22.943 12.8 3.664-21.553z"/><path d="M253.847 277.13c.185 1.92 11.6 81.386 11.6 81.386l-4.38.018-14.673-79.94z"/></g><path d="M311.497 207.407l11.25-3.91c2.9-.807 4.043-1.345 3.856-1.88-.25-.712-.12-.45-5.6.27 0 0 7.818-1.094 5.938-2.19a8.57 8.57 0 0 0-2.924-.083c2-.387 2.8-.95 2.763-1.464-.08-.887-4.728-.456-6.9-.206a42.9 42.9 0 0 0 5.952-1.027c1.017-.453-.19-1.05-1.327-1.264-1.277-.24-8.894-.557-11.087-.763a1.3 1.3 0 0 1-1.317-1.472c.884-3.073-.07-5.938-.693-6.593s-1.73-.018-1.588.97a11.94 11.94 0 0 1-.3 3.224c-.16.852-.465 1.67-.9 2.42-.51.867-.973 1.582-1.384 2.178l-7.417 2.086 3.027 12.063z" class="Z"/><path d="M318.535 202.14a28.58 28.58 0 0 0 7.48-1.171 28.72 28.72 0 0 0-7.48 1.17zm-.565-2.12a32.59 32.59 0 0 0 8.044-.765 32.58 32.58 0 0 0-8.044.765zm-.148-2.005a29.17 29.17 0 0 0 7.62-.624 29.17 29.17 0 0 0-7.62.624z" fill="#874030"/><g fill="#9d9d9d"><path d="M250.697 159.99s7.776 19.9 7.756 27.568c-.013 5.037-1.31 45.72-1.31 45.72l-47.506 10.743 11.74-32.417-3.725-15 .818-36.615z"/><path d="M250.697 160c5.624 1.527 10.013 5.928 11.524 11.557 2.716 9.7 10 28.493 10 28.493l33.07-4.964 4.038 13.5-33.57 10.53a15.52 15.52 0 0 1-18.317-9.758l-10.184-28.03zm-32.23 0s-8.276 1.9-11.776 9.23-14.96 38.2-14.96 38.2l21.007 1.9 7-18.143z"/><path d="M192.374 205.694c-.14.374-2.568 1.022-2.294 3.633s.4 8.487 4.92 8.76 21.547-7.1 21.547-7.1v-3.332a3.5 3.5 0 0 0-3.763-3.493zm65.686 7.46a8.02 8.02 0 0 1-.093-1.47l-.044-4c-.022-3.386.16-8.065.06-13.212a57.39 57.39 0 0 0-.606-7.217 56.59 56.59 0 0 0-1.242-5.786c-.442-1.63-.83-2.94-1.117-3.84-.17-.462-.298-.938-.38-1.423a8.13 8.13 0 0 1 .571 1.358c.346.884.786 2.183 1.277 3.807.564 1.9 1.018 3.85 1.36 5.8a52.99 52.99 0 0 1 .652 7.279c.1 5.18-.138 9.848-.2 13.23l-.12 4.006a8.03 8.03 0 0 1-.108 1.469z"/><path d="M221.996 184.658a102.5 102.5 0 0 1-3.326 9.7 102.41 102.41 0 0 1-3.809 9.524c-.132-.05 1.356-4.393 3.327-9.7a102.42 102.42 0 0 1 3.808-9.524zm-6.42 20.747a9.63 9.63 0 0 0-3.2-1.3c-1.242-.2-2.505-.265-3.76-.17l-4.652.445-8.445 1.034c-1.16.205-2.332.334-3.5.388a3.43 3.43 0 0 1 .917-.258l2.537-.5 8.444-1.186 4.684-.407a14.51 14.51 0 0 1 3.861.286 6.98 6.98 0 0 1 2.41 1.017 2.34 2.34 0 0 1 .714.64zm-1.83 2.655a30.49 30.49 0 0 1-3.42.416l-8.194 1.244-8.054 1.958a30.55 30.55 0 0 1-3.322.913c.26-.173.543-.308.84-.4l2.373-.862a67.24 67.24 0 0 1 16.323-3.217 40.54 40.54 0 0 1 2.524-.1 3.24 3.24 0 0 1 .929.048z"/><path d="M217.43 196.724l3.462 12.208a33.82 33.82 0 0 0 .428-21.788l-3.618 9.525M193.2 211.476c-.186.126-.42.16-.633.1s-.382-.236-.456-.448c-.115-.45.047-.923.413-1.208a3.26 3.26 0 0 1 1.22-.57 61.79 61.79 0 0 1 18.237-2.475c.3 0 .724.167.616.448-.056.147-.236.2-.392.228l-19.367 3.77" class="Y"/><path d="M218.313 160.437a1.21 1.21 0 0 1 .408.022 4.87 4.87 0 0 1 1.126.32 6.13 6.13 0 0 1 3.122 2.905c.97 2.014.735 4.4-.606 6.187a6.28 6.28 0 0 1-3.075 2.238 10.55 10.55 0 0 0-3.495 1.665 5.56 5.56 0 0 0-1.34 3.5 12.17 12.17 0 0 1-.387 1.9c-.192.608-.5 1.177-.88 1.682a5.52 5.52 0 0 1-9.223-.476 4.68 4.68 0 0 1-.475-1.071 1.24 1.24 0 0 1-.072-.4 11.22 11.22 0 0 0 .716 1.365c.78 1.157 1.963 1.983 3.318 2.32a5.28 5.28 0 0 0 5.36-2.024 6.56 6.56 0 0 0 1.144-3.367 12.68 12.68 0 0 1 .385-1.97 4.03 4.03 0 0 1 1.1-1.829c1.098-.816 2.343-1.414 3.666-1.762a5.82 5.82 0 0 0 2.873-2.047 5.63 5.63 0 0 0 .66-5.747c-.602-1.26-1.617-2.278-2.876-2.882a13.45 13.45 0 0 0-1.45-.528zm11.5 25.673a5.71 5.71 0 0 1-.2.858l-.626 2.436a25.73 25.73 0 0 0-.892 9.106c.25 2.094 1 4.097 2.184 5.84.666.953 1.504 1.774 2.47 2.42 1.036.668 2.195 1.12 3.4 1.328a24.15 24.15 0 0 0 7.978-.3 16.42 16.42 0 0 0 7.856-3.176 8.25 8.25 0 0 0 3-7.492c-.24-1.315-.94-2.502-1.974-3.348a13.9 13.9 0 0 0-3.364-1.948c-1.172-.486-2.314-1.043-3.42-1.668a8.59 8.59 0 0 1-2.652-2.467 25.3 25.3 0 0 0-1.94-2.666 7.13 7.13 0 0 0-2.435-1.693 7.3 7.3 0 0 0-5.044-.29 7.5 7.5 0 0 0-3.25 2.108 8.62 8.62 0 0 0-1.685 2.89c.044-.292.123-.577.235-.85a7.26 7.26 0 0 1 1.3-2.172c.886-1.028 2.028-1.804 3.3-2.248a7.7 7.7 0 0 1 7.858 1.983 25.17 25.17 0 0 1 2 2.689c.672.95 1.538 1.743 2.54 2.33 1.092.607 2.22 1.15 3.376 1.622 1.253.498 2.43 1.17 3.492 2a6.12 6.12 0 0 1 2.152 3.631c.414 3.03-.788 6.056-3.167 7.978a16.84 16.84 0 0 1-8.1 3.276c-2.683.547-5.438.64-8.15.272a9.58 9.58 0 0 1-3.571-1.417 9.76 9.76 0 0 1-2.571-2.553c-1.212-1.806-1.966-3.88-2.2-6.042a19.89 19.89 0 0 1 .187-5.3 36.85 36.85 0 0 1 .873-3.9l.72-2.415.207-.622a.73.73 0 0 1 .09-.203zm34.08-8.356a1.82 1.82 0 0 1-.887-.194 4.27 4.27 0 0 1-1.918-1.577 4.14 4.14 0 0 1-.667-1.619c-.116-.627-.078-1.284-.2-1.906-.098-.637-.573-1.15-1.2-1.3-.657-.2-1.433-.157-2.248-.34a5.64 5.64 0 0 1-3.585-2.724 5.34 5.34 0 0 1 .544-5.886c.38-.45.656-.628.673-.607a6.81 6.81 0 0 0-1.382 2.914 5.01 5.01 0 0 0 .578 3.346 5.27 5.27 0 0 0 3.29 2.456c.718.168 1.505.13 2.275.357a2.21 2.21 0 0 1 1.034.633 2.26 2.26 0 0 1 .485 1.05c.133.717.075 1.367.167 1.934a3.9 3.9 0 0 0 .552 1.49 4.41 4.41 0 0 0 1.7 1.592c.497.264.8.333.8.38zm31.53 19.2a1.1 1.1 0 0 1 .48.388 2.12 2.12 0 0 1 .3 1.733 2.54 2.54 0 0 1-.586 1.166 4.01 4.01 0 0 1-1.246.911c-1.146.435-2.314.8-3.5 1.12a4.11 4.11 0 0 0-1.7 1.082c-.478.56-.786 1.245-.888 1.974-.286 1.528 0 3.256-.393 5.085-.414 1.953-1.76 3.578-3.6 4.35a5.23 5.23 0 0 1-3.078.193 4.85 4.85 0 0 1-2.644-1.737 3.99 3.99 0 0 0-2.252-1.7 6.2 6.2 0 0 0-2.768.567 6.03 6.03 0 0 1-2.936.365 6.57 6.57 0 0 1-2.656-1.006 6.92 6.92 0 0 1-2.955-4.2 9.09 9.09 0 0 1 .058-4.49c.605-2.096 1.767-4 3.363-5.478a14.49 14.49 0 0 1 1.334-1.142 2.53 2.53 0 0 1 .509-.34c.03.04-.65.54-1.7 1.623-1.503 1.505-2.6 3.375-3.152 5.426a8.8 8.8 0 0 0 0 4.3 6.5 6.5 0 0 0 2.8 3.91 5.58 5.58 0 0 0 5.173.563 6.55 6.55 0 0 1 3.009-.6 2.9 2.9 0 0 1 1.48.716c.387.358.748.742 1.08 1.15a4.46 4.46 0 0 0 5.157 1.412 5.62 5.62 0 0 0 3.312-3.987c.38-1.694.12-3.436.435-5.054a4.26 4.26 0 0 1 1.013-2.163 4.46 4.46 0 0 1 1.871-1.157c1.316-.444 2.54-.585 3.495-1.042a2.87 2.87 0 0 0 1.761-1.864 2.03 2.03 0 0 0-.2-1.627 3.77 3.77 0 0 0-.387-.448zm-77.372.25a23.4 23.4 0 0 0-2.55-1 9.16 9.16 0 0 0-10.889 5.021 23.44 23.44 0 0 0-.894 2.589 1.88 1.88 0 0 1 .018-.753 7.9 7.9 0 0 1 .545-1.984 9.09 9.09 0 0 1 11.324-5.221c.656.2 1.282.503 1.862.874.405.266.6.448.585.474zm31.82 27.027c.016-.007.072.093.167.293a4.37 4.37 0 0 1 .276.925 5.49 5.49 0 0 1-.581 3.483 5.06 5.06 0 0 1-1.675 1.839 5.3 5.3 0 0 1-2.736.836c-1.076.03-2.137-.246-3.06-.8-1-.556-1.545-1.74-2.577-1.686a6.94 6.94 0 0 0-2.847 1.28 5.74 5.74 0 0 1-3.052.8 5.63 5.63 0 0 1-4.594-2.409 5.74 5.74 0 0 1-1.012-3.383 4.53 4.53 0 0 1 .124-.957c.06-.213.1-.32.116-.317.048.01-.073.458-.04 1.27a5.83 5.83 0 0 0 1.11 3.175 5.44 5.44 0 0 0 7.1 1.385l1.4-.833a3.72 3.72 0 0 1 1.7-.524 2.34 2.34 0 0 1 1.65.754 6.6 6.6 0 0 0 1.19 1.017 5.2 5.2 0 0 0 2.785.75 4.9 4.9 0 0 0 2.516-.722c.657-.415 1.202-.984 1.588-1.658a5.55 5.55 0 0 0 .7-3.276c-.1-.803-.294-1.225-.248-1.243z"/></g><path d="M318.38 327.107l3.5 24.278-15.8 2.17-3.225-23.745z" class="Z"/><path d="M321.433 351.85l-.24-1.4-15.357 2.036.98 5.77.95-.1c4.226-.5 21.456-2.82 24.106-4.156 2.956-1.49-10.438-2.15-10.438-2.15z" class="U"/><g class="V"><path d="M312.293 357.182a5.34 5.34 0 0 0-2.5-2.9c-1.14-.625-2.474-.798-3.737-.486l.734 4.24z" opacity=".5"/><path d="M328.016 352.398s4.744.517 4.3 1.36-17.756 3.845-25.512 4.5l-.035-.343 20.234-3.332s.127-1.993 1.003-2.184z" opacity=".5"/></g><g class="S"><path d="M306.54 357.948a1.31 1.31 0 0 0 .266-.017l.757-.085 2.778-.36 9.13-1.42 9.08-1.726 2.738-.592.74-.175c.087-.016.173-.04.256-.072-.09.003-.177.015-.264.036l-.748.14-2.75.534-9.086 1.67-9.12 1.473-2.77.418-.752.12a1.5 1.5 0 0 0-.261.055z"/><path d="M327.05 354.82c.024-.972.394-1.903 1.044-2.625a2.49 2.49 0 0 0-1.044 2.625zm-4.87-1.494c.047.02.216-.277.377-.664a1.63 1.63 0 0 0 .205-.737c-.047-.02-.216.278-.378.665a1.62 1.62 0 0 0-.204.736zm-1.34-.436c.04.032.253-.17.473-.45s.367-.533.327-.566-.253.17-.473.45-.368.533-.327.565zm-1.026-1.298a1.83 1.83 0 0 0 .81-.037 1.84 1.84 0 0 0 .78-.22 1.84 1.84 0 0 0-.809.037 1.84 1.84 0 0 0-.78.22z"/><path d="M319.373 350.63a2.26 2.26 0 0 0 1.818-.176l-1.818.176zm3.093 1.283a2.84 2.84 0 0 0 .973-.175 5.87 5.87 0 0 0 1-.409 2.9 2.9 0 0 0 .552-.348.54.54 0 0 0 .19-.344c.007-.153-.078-.296-.215-.364-.832-.243-1.72.137-2.12.906a1.78 1.78 0 0 0-.2.706c-.016.1-.01.18.02.267a2.81 2.81 0 0 1 .3-.908 1.79 1.79 0 0 1 .738-.686c.36-.196.784-.24 1.176-.12.175.087.146.28-.008.413a2.98 2.98 0 0 1-.507.33 6.82 6.82 0 0 1-.959.435l-.94.3z"/><path d="M322.727 351.918a.97.97 0 0 0 0-.7 1.62 1.62 0 0 0-.39-.665c-.218-.267-.56-.4-.9-.356-.197.08-.296.3-.223.5a1.09 1.09 0 0 0 .242.408 2.95 2.95 0 0 0 .563.509 1.43 1.43 0 0 0 .626.3c.013-.027-.224-.14-.547-.4a3.43 3.43 0 0 1-.509-.513c-.17-.184-.326-.537-.1-.624.24-.066.53.133.714.3a1.62 1.62 0 0 1 .386.586 3.63 3.63 0 0 1 .127.655zm-16.597 1.825c.01.034.427-.116 1.127-.155 1.86-.117 3.62.848 4.523 2.48.344.6.442 1.042.476 1.033a.9.9 0 0 0-.053-.306c-.074-.273-.177-.538-.307-.8a4.68 4.68 0 0 0-4.649-2.547 4.07 4.07 0 0 0-.831.166.86.86 0 0 0-.286.12zm7.82 1.657a12.67 12.67 0 0 0 4.434-.76c-.014-.052-.992.188-2.215.4l-2.22.36zm-2.975.486c-.03.043.117.2.258.406s.23.4.282.4.036-.254-.127-.495-.4-.346-.413-.3zm-1.375-1.202c-.03.042.095.184.28.315s.358.205.4.163-.1-.183-.28-.315-.358-.205-.388-.163zm-1.705-.36c.02.05.22.014.457.053s.42.13.452.1-.13-.228-.423-.273-.5.088-.486.13zm-1.193-.104c-.01.05.1.113.225.14s.252.008.262-.042-.1-.114-.225-.14-.252-.008-.262.042z"/></g><path d="M270.37 328.945l-9.718 21.06-14.166-7.334 7.03-15.564z" class="Z"/><path d="M260.014 350.126l.61-1.28-13.724-7.187-2.525 5.28.837.464c3.74 2.03 19.158 10.06 22.094 10.5 3.275.482-7.29-7.776-7.29-7.776z" class="U"/><g class="V"><path d="M249.472 349.216a5.34 5.34 0 0 0-.371-3.809 5.19 5.19 0 0 0-2.775-2.551l-1.843 3.89z" opacity=".5"/><path d="M265.08 354.367s3.58 3.156 2.74 3.594-16.728-7.09-23.445-11.023l.17-.3 18.456 8.94s1.254-1.56 2.08-1.2z" opacity=".5"/></g><g class="S"><path d="M244.33 346.526a1.47 1.47 0 0 0 .227.139l.667.367 2.478 1.307 8.28 4.1 8.416 3.823 2.58 1.094.706.284a1.34 1.34 0 0 0 .252.088 1.5 1.5 0 0 0-.237-.122l-.692-.317-2.554-1.147-8.39-3.87-8.3-4.052-2.5-1.254-.683-.337c-.08-.042-.164-.076-.25-.102z"/><path d="M262.894 355.8a6.32 6.32 0 0 1 1.044-.983 6.34 6.34 0 0 1 1.32-.56 2.49 2.49 0 0 0-2.365 1.543zm-3.118-4.027c.028.043.338-.1.692-.327s.62-.44.6-.484-.337.1-.7.327-.62.44-.592.484zm-.844-1.13c.015.05.3.007.646-.095s.606-.224.6-.273-.3-.007-.645.095-.607.224-.592.273zm-.092-1.65c-.022.046.283.242.682.436a1.8 1.8 0 0 0 .764.268c.023-.045-.282-.24-.682-.436a1.81 1.81 0 0 0-.764-.268z"/><path d="M259.035 347.94c-.035.035.243.362.7.62a1.56 1.56 0 0 0 .89.285l-1.588-.905zm1.79 2.83a2.84 2.84 0 0 0 .9.419 5.73 5.73 0 0 0 1.051.241 2.88 2.88 0 0 0 .652.034c.135-.01.262-.073.353-.173a.39.39 0 0 0 .034-.421c-.54-.68-1.486-.88-2.256-.48a1.77 1.77 0 0 0-.574.458c-.1.136-.147.224-.138.23.22-.233.482-.427.77-.57a1.79 1.79 0 0 1 1-.134c.407.047.78.255 1.032.578.092.173-.042.314-.245.333a2.9 2.9 0 0 1-.605-.024 6.84 6.84 0 0 1-1.034-.2l-.94-.3z"/><path d="M261.03 350.927c.2-.135.342-.34.4-.573.083-.247.105-.5.065-.77a1 1 0 0 0-.528-.809.4.4 0 0 0-.472.282 1.1 1.1 0 0 0-.038.472 3.03 3.03 0 0 0 .166.741 1.43 1.43 0 0 0 .341.6c.026-.015-.1-.245-.214-.645a3.46 3.46 0 0 1-.12-.715c-.034-.247.043-.626.287-.56.234.085.356.416.4.66a1.61 1.61 0 0 1-.023.7 3.63 3.63 0 0 1-.273.618zm-14.617-8.073c-.012.033.417.15 1 .522 1.588.977 2.47 2.78 2.268 4.633-.07.7-.24 1.108-.206 1.118.06-.085.105-.18.133-.28.095-.266.162-.542.2-.822a4.68 4.68 0 0 0-2.331-4.761 4.01 4.01 0 0 0-.775-.344.86.86 0 0 0-.3-.066zm5.447 5.85c1.228.882 2.604 1.538 4.063 1.935.018-.05-.92-.42-2.04-.954l-2.024-.98zm-2.72-1.3c-.05.018-.017.227-.023.48s-.043.462.006.482.176-.187.18-.478-.118-.506-.164-.484zm-.42-1.768c-.05.017-.028.2.047.42s.175.374.223.356.028-.2-.047-.42-.175-.373-.223-.356zm-1.194-1.28c-.012.05.174.137.344.306s.267.347.318.334.026-.262-.188-.467-.467-.223-.474-.173zm-.926-.772c-.038.036.01.145.1.244s.2.152.24.117-.01-.145-.1-.244-.203-.153-.24-.117zm-36.177-100.572s-5.3 19.1 11.6 24.4l50.563 1.654-24.054 61.186 21.72 6.15 27.788-62.458a20.53 20.53 0 0 0-13.477-29.203l-39.44-9.576-33.907 8.08"/><path d="M230.48 239.73s-9.694 19.42 12.067 23.737l51.013 5.9 6.7 65.566 21.143-1.266-4.68-69.26a22.68 22.68 0 0 0-15.908-20.595l-43.665-10.536-26.66 6.45"/></g><path d="M289.057 294.128a10.7 10.7 0 0 1 .571-1.5l1.807-4.336L298 272.874c3.115-5.67 2.38-14.448-2.666-20.827a20.08 20.08 0 0 0-7.183-5.4 46.97 46.97 0 0 0-8.024-2.784c-2.623-.7-5.16-1.245-7.523-1.777l-6.576-1.48-9.505-2.185-2.58-.617-.668-.173a.85.85 0 0 1-.223-.076c.08-.004.16.005.236.025l.68.123 2.6.523 9.55 2.02 6.6 1.42c2.368.514 4.9 1.034 7.544 1.734a46.77 46.77 0 0 1 8.119 2.787c2.843 1.26 5.362 3.153 7.366 5.532 5.18 6.555 5.905 15.52 2.66 21.365l.01-.018-6.733 15.325-1.92 4.286a12.64 12.64 0 0 1-.694 1.453zm-12.93-32.955a59.28 59.28 0 0 1-4 10.287 59.28 59.28 0 0 1 4-10.287z" class="T"/><path d="M214.43 210.977l27.245 2.458s8.116-3.37 9.855-2.458 9.924 8.448 9.924 8.448h-65.96l-.495-1.34z" class="Z"/><path d="M233.64 110.483c1.354-2.176 4.18-2.965 6.74-2.928 7.35.29 13.552 5.562 15.025 12.768.512 2.878.21 5.9 1.118 8.678a24.16 24.16 0 0 0 3.056 5.53c1.26 1.706 2.135 3.664 2.567 5.74.408 2.122-.406 4.294-2.11 5.624a7.04 7.04 0 0 1-6.219 11.872c-1.547-.267-3.205-1.03-4.592-.3a7.6 7.6 0 0 0-1.7 1.606c-2.128 2.18-5.665 2.535-8.506 1.434-2.803-1.247-5.153-3.33-6.726-5.964-.44-.67-1.025-1.453-1.824-1.373a2.53 2.53 0 0 0-1.209.675c-2.91 2.278-7.075 1.966-9.612-.72s-2.61-6.863-.17-9.638a8.24 8.24 0 0 1-5.368-5.38 11.95 11.95 0 0 1 .3-7.758c1.328-3.68 3.985-6.7 6.584-9.62 2.38-2.674 3.082-6.807 5.46-9.48a7.63 7.63 0 0 1 4.433-2.957c1.774-.145 3.55.252 5.092 1.14" class="S"/><circle cx="252.999" cy="132.199" r="7.116" class="U"/><path d="M238.982 111.754a13.3 13.3 0 0 0-13.294 13.439l.4 36.345c.063 4.633 4.095 8.27 9.054 8.164 5.01-.106 9.077-3.983 9.092-8.664l.12-10.084s6.33-1.05 7.64-9.308c.33-2.075.35-9.7.292-16.714-.063-7.297-5.997-13.18-13.294-13.178z" class="Z"/><g class="S"><path d="M250.4 130a1.06 1.06 0 0 1-1.021 1.068 1.01 1.01 0 0 1-.747-.247c-.205-.18-.33-.435-.345-.708a1.06 1.06 0 0 1 1.02-1.069c.273-.022.542.068.748.248s.33.435.345.708zm.234-1.185c-.13.137-.934-.456-2.073-.453-1.138-.013-1.974.574-2.1.433-.06-.06.073-.3.437-.576a2.9 2.9 0 0 1 1.679-.518c.593-.002 1.17.184 1.65.533.353.27.472.523.407.58zM239 130a1.06 1.06 0 0 1-1.022 1.068 1.01 1.01 0 0 1-1.091-.955 1.06 1.06 0 0 1 1.02-1.069c.273-.022.542.068.748.248s.33.435.345.708z"/><path d="M239.424 129.017c-.13.138-.935-.455-2.074-.452-1.137-.014-1.974.573-2.1.433-.06-.062.072-.3.437-.577.493-.34 1.08-.522 1.68-.518a2.8 2.8 0 0 1 1.651.533c.35.27.47.518.407.58zm4.133 8.453a7.52 7.52 0 0 1 1.851-.335c.3-.03.567-.088.615-.286a1.48 1.48 0 0 0-.194-.862l-.86-2.216c-.8-1.878-1.445-3.818-1.933-5.8a38.25 38.25 0 0 1 2.395 5.627l.824 2.23a1.69 1.69 0 0 1 .151 1.141.73.73 0 0 1-.479.425 2.01 2.01 0 0 1-.495.07c-.622.082-1.252.084-1.875.008z"/></g><path d="M244.345 150.952c-3.888.06-7.717-.962-11.06-2.95 0 0 2.683 5.672 10.947 4.9zm-1.268-10.738a2.05 2.05 0 0 0-1.84-.763c-.508.046-.975.296-1.294.694a1.19 1.19 0 0 0-.091 1.358 1.38 1.38 0 0 0 1.495.378c.538-.2 1.033-.486 1.456-.87a1.27 1.27 0 0 0 .326-.337c.085-.128.085-.296 0-.424" fill="#874030"/><g class="S"><path d="M240.206 138.256c.186-.01.188 1.226 1.246 2.1s2.376.742 2.385.915c.018.078-.293.24-.85.256-.725.01-1.43-.236-2-.694-.538-.44-.884-1.073-.965-1.764-.048-.514.1-.82.175-.813zm-.736-12.43c-.113.3-1.25.163-2.587.325-1.34.133-2.418.525-2.6.248-.08-.133.1-.424.545-.725 1.18-.746 2.635-.907 3.948-.436.494.198.744.444.694.588zm10.736-.32c-.2.26-.986-.01-1.93-.023-.943-.045-1.743.174-1.927-.1-.08-.13.045-.4.395-.636a2.8 2.8 0 0 1 3.107.1c.333.266.443.532.355.66zm-27.504-.54c.58-5 2.944-10.04 7.235-12.674 3.764-2.3 7.6-2.836 11.353-.8a10.75 10.75 0 0 1 8.758 2.753c2.415 2.3 3.924 5.392 4.254 8.7.374 3.28-.774 6.72-2 9.785-.212-2.8.1-5.67-.122-8.458-4.292-1.82-8.977-5.42-10.65-9.8-1.693 6.007-6.463 10.655-12.513 12.2a14.3 14.3 0 0 1-4.906 13.255c-1.032-4.93-1.988-9.966-1.4-14.972z"/><path d="M228.175 129.92c-.642 3.2.455 6.45 1.267 9.61s1.29 6.724-.407 9.5c-.614.718-1.01 1.597-1.145 2.532.18.817.468 1.607.858 2.347.367 1.542-.297 3.146-1.647 3.978a6.02 6.02 0 0 1-4.462.64 17.9 17.9 0 0 1-4.288-1.69l-4.024-2a6.91 6.91 0 0 1-1.691-1.057c-.777-.83-1.287-1.876-1.464-3-.852-4.344-.09-8.85 2.147-12.67 2.15-3.815 1.194-10.156 4.895-12.5"/></g><path d="M216.384 155.507a8.06 8.06 0 0 1-2.156-.849 6.87 6.87 0 0 1-3.184-5.144 8.55 8.55 0 0 1 .72-4.213 10.1 10.1 0 0 1 1.231-2.062c.514-.654 1.115-1.275 1.736-1.92.66-.656 1.268-1.363 1.817-2.115a6.1 6.1 0 0 0 1.1-2.755c.25-2.034-.517-4.042-.2-6a3.72 3.72 0 0 1 1.46-2.371c.8-.55 1.664-.97 2.586-1.25a19.48 19.48 0 0 0 5.17-2.3 35.01 35.01 0 0 0 7.061-6.426c1.782-2.052 3.075-3.83 3.957-5.062l.986-1.44a2.51 2.51 0 0 0 .309-.526 2.48 2.48 0 0 0-.4.461l-1.068 1.377-4.077 4.932c-2.063 2.385-4.43 4.488-7.043 6.255-1.574.98-3.282 1.73-5.07 2.22a9.61 9.61 0 0 0-2.743 1.324 4.27 4.27 0 0 0-1.67 2.71c-.34 2.175.44 4.16.2 6.025-.2 1.88-1.54 3.306-2.748 4.583-.618.628-1.203 1.286-1.753 1.974a10.36 10.36 0 0 0-1.267 2.18 8.85 8.85 0 0 0-.687 4.435c.138 1.25.6 2.437 1.37 3.44a6.72 6.72 0 0 0 2.093 1.849 5.46 5.46 0 0 0 1.654.609 2.06 2.06 0 0 0 .608.049zm2.546-32.53a2.84 2.84 0 0 0 .88-.18 23.67 23.67 0 0 0 2.313-.774 35.5 35.5 0 0 0 13.226-8.993 23.49 23.49 0 0 0 1.57-1.867c.345-.462.52-.728.5-.75-.07-.057-.893.9-2.342 2.348a42.56 42.56 0 0 1-13.093 8.9l-3.045 1.317zm29.028-12.753c.042-.053-.38-.512-1.208-1.1a6.94 6.94 0 0 0-3.738-1.294 4.77 4.77 0 0 0-2.187.458 4 4 0 0 0-1.413 1.153c-.637.852-.623 1.55-.565 1.546a10.74 10.74 0 0 1 .864-1.3c.858-.9 2.058-1.37 3.294-1.3 1.25.068 2.465.436 3.542 1.075a7.08 7.08 0 0 0 1.411.763z" class="T"/><g class="U"><circle cx="224.797" cy="132.744" r="7.116"/><path d="M227.51 127.69s-.28-15.165 9.363-19.39h-4.327s-7.654 1.118-8.4 18.2"/></g><circle cx="224.797" cy="132.744" r="2.954" class="Y"/><path d="M227 134.462c-.08.142-.18.27-.3.38-.32.3-.705.54-1.128.68a3.1 3.1 0 0 1-1.953 0c-.772-.3-1.395-.88-1.727-1.635a3.08 3.08 0 0 1-.04-2.38 3.1 3.1 0 0 1 1.324-1.436 2.93 2.93 0 0 1 1.263-.372 1.52 1.52 0 0 1 .48.038 3.49 3.49 0 0 0-1.671.459 3.04 3.04 0 0 0-1.221 1.385c-.575 1.495.163 3.175 1.654 3.76a3.04 3.04 0 0 0 1.846.036 3.47 3.47 0 0 0 1.47-.917zm2-1.797a9.01 9.01 0 0 0-.171-1.017c-.243-.906-.783-1.705-1.534-2.267-1.696-1.28-4.087-1.057-5.52.513s-1.43 3.972 0 5.542 3.823 1.793 5.52.513a4.2 4.2 0 0 0 1.535-2.268 9.03 9.03 0 0 0 .17-1.017 3.26 3.26 0 0 1-.093 1.037 4.18 4.18 0 0 1-1.523 2.363 4.27 4.27 0 0 1-4.053.639 4.29 4.29 0 0 1 0-8.076 4.27 4.27 0 0 1 4.052.638 4.18 4.18 0 0 1 1.524 2.364 3.25 3.25 0 0 1 .093 1.036z" class="S"/><path d="M232.954 272.282c6.975-.46 3.7-10.472 3.524-21.622-.11-7-4.753-13.847-9.82-18.665a23.88 23.88 0 0 0-8.9-4.967 55.27 55.27 0 0 0-26.976-1.732c0 0-13.197 50.638 42.172 46.986z" class="T"/><g class="S"><path d="M563.692 307.843h60.928v8.372h-60.928z"/><path d="M624.723 316.32h-61.136v-8.58h61.136zm-60.926-.2h60.72v-8.164h-60.72z"/><path d="M569.34 313.428l8.77 43.266h32.45l8.478-40.48z"/></g><path d="M569.34 352.6l4.677 6.43h39.442l5.578-6.43z" class="T"/><path d="M591.867 314.692c-.12 0-.273-20.044-.343-44.763l.1-44.77c.12-.001.273 20.04.344 44.768l-.092 44.765zm13.573-50.16c-.037.16-.092.318-.164.467l-.544 1.3-.4.934-.405 1.137-.47 1.306-.45 1.488a60.82 60.82 0 0 0-1.7 7.46 90.96 90.96 0 0 0-.944 9.328c-.225 5.685-.064 11.378.482 17.04l.538 5.147.154 1.4a.25.25 0 0 1 .24.232c.01.127-.084.24-.2.26s-.246-.062-.277-.186.04-.25.16-.292l-.234-1.4c-.2-1.208-.44-2.963-.676-5.14a110.87 110.87 0 0 1-.6-17.09 84.95 84.95 0 0 1 .983-9.374 56.5 56.5 0 0 1 1.8-7.484c.17-.52.3-1.026.483-1.488l.5-1.3.44-1.13c.15-.34.3-.646.433-.923l.62-1.268a2.1 2.1 0 0 1 .251-.435zm-1.56-16.212c-.046.225-.1.446-.194.66q-.235.7-.634 1.864l-.466 1.344-.5 1.618-1.136 3.96-.6 2.318-.57 2.534-1.126 5.62a166.41 166.41 0 0 0-1.67 13.024c-.385 4.647-.553 9.085-.612 13.124-.012 4.04.04 7.678.205 10.73.054 1.527.152 2.905.23 4.117l.224 3.107.15 1.964a4.06 4.06 0 0 1 .023.687 3.18 3.18 0 0 1-.1-.678l-.23-1.957c-.1-.85-.2-1.9-.3-3.1l-.294-4.12c-.205-3.054-.3-6.7-.3-10.747.038-4.048.194-8.5.58-13.158.4-4.655 1.014-9.068 1.7-13.058.4-1.983.726-3.882 1.168-5.628l.6-2.537.64-2.317c.387-1.482.822-2.8 1.2-3.953l.525-1.612q.274-.726.5-1.333l.712-1.838a4 4 0 0 1 .28-.635zm-15.866 69.918a.91.91 0 0 1-.034-.234l-.057-.7-.18-2.655-.6-9.763c-.53-8.242-1.293-19.63-2.68-32.15a403.37 403.37 0 0 0-2.385-17.6l-1.334-7.634c-.428-2.4-.9-4.6-1.316-6.622-.4-2.026-.846-3.84-1.205-5.44l-.98-4.1-.633-2.582-.154-.675a1.01 1.01 0 0 1-.038-.233.92.92 0 0 1 .08.222l.2.663.712 2.564c.3 1.113.676 2.478 1.052 4.076l1.27 5.43 1.37 6.62c.484 2.382.9 4.944 1.375 7.636a370.32 370.32 0 0 1 2.422 17.614c1.388 12.535 2.1 23.932 2.556 32.18l.473 9.772.1 2.66.015.692a1 1 0 0 1-.018.239z" class="S"/><g class="U"><path d="M591.37 234.794c-.265-2.84-3.134-4.98-5.986-5.01-2.895.128-5.57 1.58-7.254 3.937-1.643 2.34-2.828 4.97-3.493 7.752-2.077 6.666-2.807 13.68-2.15 20.63.82 6.91 3.625 13.716 8.585 18.6.806.794 1.85 1.588 2.958 1.35.595-.18 1.134-.51 1.56-.963a46.17 46.17 0 0 0 14.983-35.107c-.077-2.628-.423-5.363-1.878-7.553s-4.848-4.514-7.326-3.636"/><use xlink:href="#B"/></g><use xlink:href="#B" class="Y"/><path d="M591.615 225.16l-36.224-21.37c-.397-.172-.713-.5-.882-.89-.144-.536.26-1.052.645-1.45a24.96 24.96 0 0 1 19.358-7.605c7.27.522 13.817 4.594 17.5 10.885 3.5 6.246 3.612 14.507-.4 20.437" class="U"/><g class="S"><path d="M560.613 196.96c.155-.04.315-.06.475-.06l1.368-.066c1.684-.022 3.367.112 5.027.4 11.278 1.905 20.425 10.18 23.446 21.213a27.2 27.2 0 0 1 .9 4.962c.066.59.055 1.056.07 1.368a2.03 2.03 0 0 1-.011.478c-.038 0-.084-.654-.228-1.828-.21-1.658-.552-3.297-1.025-4.9-3.097-10.85-12.095-18.996-23.2-21a30.79 30.79 0 0 0-4.973-.532c-1.19-.018-1.848.003-1.85-.036z"/><path d="M586.713 210.405a8.74 8.74 0 0 1-1.831.832l-4.57 1.6-4.662 1.323a8.7 8.7 0 0 1-1.976.376c.607-.287 1.24-.513 1.893-.672l4.614-1.44 4.6-1.486a9.89 9.89 0 0 1 1.933-.543zM581 195.083a25.3 25.3 0 0 1 .2 8.1 75.9 75.9 0 0 1-.2-8.1zm-25.935 8.295c.85-.383 1.73-.693 2.632-.926l6.492-1.766 6.586-1.385a16.15 16.15 0 0 1 2.764-.373 19.59 19.59 0 0 1-2.7.674l-6.544 1.506-6.5 1.64a19.55 19.55 0 0 1-2.72.631z"/></g><path d="M574.913 228.078c-3.116-2.362-6.4-2.828-10.316-2.673a31.53 31.53 0 0 0-11.291 2.914c-6.108 2.674-11.85 6.618-15.5 12.2s-4.92 12.97-2.188 19.053a2.72 2.72 0 0 0 1.237 1.5c.678.193 1.403.138 2.044-.157 6.948-2.266 13.944-4.553 20.33-8.1s12.2-8.482 15.63-14.936c.882-1.522 1.442-3.21 1.645-4.956.192-1.768-.39-3.533-1.593-4.84" class="U"/><g class="S"><path d="M574.975 227.34a2.54 2.54 0 0 1-.5.2l-1.455.5-1.054.35-1.232.48-2.973 1.232-1.7.776-1.8.927c-1.26.618-2.533 1.4-3.9 2.2a61.51 61.51 0 0 0-15.326 13.483l-2.687 3.578-1.15 1.672-.986 1.6c-.655 1-1.136 1.966-1.6 2.793l-.633 1.16-.483 1-.682 1.38a.27.27 0 1 1-.08-.036l.6-1.417.45-1.02c.162-.368.387-.758.6-1.182l1.553-2.837.967-1.614 1.135-1.7c.766-1.187 1.707-2.365 2.672-3.624 4.314-5.38 9.53-9.97 15.416-13.563 1.37-.8 2.66-1.58 3.935-2.2.632-.313 1.228-.643 1.826-.9l1.725-.754c1.088-.506 2.122-.844 3.012-1.18l1.25-.448 1.07-.317 1.483-.424a2.6 2.6 0 0 1 .528-.119zm-24.34 13.18a145.6 145.6 0 0 1-15.28 4.467c5.008-1.765 10.1-3.256 15.28-4.467z"/><path d="M550.325 257.244c-.133-.78-.2-1.57-.167-2.36l.016-5.7.3-5.7c.023-.8.124-1.577.3-2.348a13.43 13.43 0 0 1 .008 2.365l-.176 5.693-.142 5.693a13.51 13.51 0 0 1-.139 2.358zm14.325-7.298c-.12.008-.5-4.093-.85-9.158l-.418-9.2c.12-.01.5 4.092.85 9.16l.418 9.188zm-17.835-18.743a13.63 13.63 0 0 1 2.428-.073l5.848.13 5.844.258a13.65 13.65 0 0 1 2.42.233 13.38 13.38 0 0 1-2.426.074l-5.853-.13-5.846-.257c-.8-.005-1.62-.083-2.415-.234zm35.812 51.45a2.12 2.12 0 0 1-.052-.495l-.063-1.424-.02-5.24.447-7.76 1.274-9.435 2.062-9.3 2.26-7.438 1.828-4.9.552-1.314c.055-.157.13-.306.22-.446a2.2 2.2 0 0 1-.138.479l-.475 1.342-1.695 4.946-2.165 7.443-2.02 9.272-1.3 9.4-.538 7.73-.117 5.228-.018 1.424a2.18 2.18 0 0 1-.039.496z"/><path d="M584.538 257.94c-.423.58-.907 1.1-1.444 1.586l-3.786 3.52-3.986 3.293a10 10 0 0 1-1.762 1.225 11.31 11.31 0 0 1 1.568-1.463l3.894-3.382 3.862-3.418a11.23 11.23 0 0 1 1.654-1.361zm11.465 9.234c-.567-.67-1.082-1.382-1.54-2.13l-3.58-5.224-3.655-5.173a16.9 16.9 0 0 1-1.463-2.184 14.74 14.74 0 0 1 1.709 2l3.765 5.1 3.48 5.305a14.7 14.7 0 0 1 1.282 2.298zm-6.006-29.047c.064.1-3.744 2.665-8.507 5.727s-8.676 5.463-8.742 5.362 3.743-2.665 8.507-5.728 8.677-5.462 8.742-5.36zm10.738 11.593a141.91 141.91 0 0 1-11.218-10.957 141.29 141.29 0 0 1 11.218 10.957z"/></g><path d="M603.437 249.487l3.27-.27a16.18 16.18 0 0 0 6.6-2.022 26.3 26.3 0 0 1 3.078-1.546c4.042-1.622 8.552-1.332 12.9-1.55a53.43 53.43 0 0 0 20.527-5.249 2 2 0 0 0 .893-.811c.672-1.223-.576-2.313-1.65-2.974-5.51-3.394-11.116-6.83-17.363-8.516s-13.337-1.4-18.667 2.268c-6.257 4.306-8.537 13.15-9.594 20.672" class="U"/><g class="S"><path d="M650.78 237.635c-.192-.07-.378-.156-.554-.26l-1.55-.81-5.724-2.922c-2.847-1.4-5.812-2.542-8.86-3.415a29.25 29.25 0 0 0-11.483-.931 19.63 19.63 0 0 0-10.469 4.5 23.3 23.3 0 0 0-5.451 7.657c-.9 1.946-1.68 3.936-2.37 5.962l-.582 1.65c-.058.196-.135.386-.23.568a3.27 3.27 0 0 1 .146-.594l.5-1.675a54.42 54.42 0 0 1 2.254-6.038c1.26-2.96 3.12-5.625 5.465-7.827 3.017-2.574 6.736-4.185 10.677-4.626 3.908-.462 7.87-.13 11.647.975 3.065.897 6.04 2.076 8.888 3.524 2.436 1.212 4.35 2.3 5.67 3.05l1.51.884a3.09 3.09 0 0 1 .516.329z"/><path d="M642.93 241.856c-.067.1-4.343-2.666-9.55-6.178s-9.375-6.438-9.308-6.538 4.343 2.666 9.55 6.18 9.374 6.437 9.307 6.537zm-4.106-13.126a16.04 16.04 0 0 1-6.742.621l6.742-.62zm-19.174-3.435a22.61 22.61 0 0 1-3.179 5.389 22.7 22.7 0 0 1 3.179-5.389zm3.832 19.08c-.723-.3-1.412-.675-2.058-1.117l-4.688-3.143-4.487-3.417a12.68 12.68 0 0 1-1.776-1.522 12.29 12.29 0 0 1 1.961 1.275l4.557 3.3 4.6 3.237a13.9 13.9 0 0 1 1.891 1.377z"/></g><path d="M608.252 263.377c-3.12-.824-6.836 2.21-7.48 5.37s.543 6.394 1.93 9.305c2.97 6.527 7.38 12.295 12.9 16.874 5.564 4.578 12.515 7.137 19.72 7.26-1.32-6.124.35-12.52-.386-18.742a24.38 24.38 0 0 0-21.593-21.378c-2-.215-4.294-.527-5.088 1.31" class="U"/><g class="S"><path d="M635.317 302.184a2 2 0 0 1-.444-.206c-.41-.226-.8-.488-1.166-.783a12.16 12.16 0 0 1-3.079-4.119l-1.6-3.174-1.678-3.71c-.604-1.363-1.292-2.687-2.06-3.965a31.1 31.1 0 0 0-2.837-3.859c-2.135-2.507-4.427-4.677-6.412-6.75a44.02 44.02 0 0 1-4.89-5.865c-.976-1.42-1.778-2.952-2.388-4.563a13.79 13.79 0 0 1-.417-1.338 2.04 2.04 0 0 1-.1-.479c.04-.012.217.637.672 1.754.665 1.57 1.498 3.062 2.485 4.45a46.48 46.48 0 0 0 4.922 5.76l6.456 6.748c1.058 1.228 2.017 2.538 2.87 3.917a35.18 35.18 0 0 1 2.063 4.021l1.64 3.724 1.542 3.185c.682 1.56 1.674 2.964 2.915 4.13.917.8 1.533 1.08 1.507 1.12z"/><path d="M619.192 297.096a9.37 9.37 0 0 1 .286-2.1l1.185-4.97 1.583-4.857a9.35 9.35 0 0 1 .852-1.94 11.3 11.3 0 0 1-.561 2.04l-1.455 4.875-1.3 4.917a11.25 11.25 0 0 1-.59 2.034zm15.535-15.03a12.85 12.85 0 0 1-2.2-.505l-5.264-1.3-5.312-1.085a12.84 12.84 0 0 1-2.2-.486 10.54 10.54 0 0 1 2.25.183l5.36.964 5.254 1.426a10.46 10.46 0 0 1 2.113.803zm-27.107 4.367c.035-.82.148-1.632.338-2.43l1.294-5.77 1.692-5.668c.223-.8.522-1.553.893-2.284a15 15 0 0 1-.6 2.375l-1.566 5.687-1.414 5.725c-.146.805-.36 1.596-.637 2.365zm19.953-17.465c-.013.118-3.906-.2-8.694-.7l-8.65-1.135c.013-.12 3.9.2 8.7.7l8.644 1.135z"/></g><path d="M624.72 316.18c0 .12-13.685.217-30.563.217s-30.566-.1-30.566-.217 13.682-.217 30.566-.217l30.563.217zm-9.522 17.6c0 .12-9.22.217-20.593.217S574 333.907 574 333.8s9.218-.217 20.595-.217l20.593.217zm.36 2.52c0 .12-9.22.216-20.593.216s-20.595-.1-20.595-.216 9.22-.217 20.595-.217l20.593.217zm.001-4.595c0 .12-9.537.217-21.3.217s-21.3-.1-21.3-.217 9.536-.216 21.3-.216l21.3.216z" class="T"/><g class="U"><path d="M66.03 260.772a14.99 14.99 0 0 1 10.4 5.441c2.542 3.142 4.33 6.825 5.228 10.766 1.948 7.54.635 16.406-1.575 23.874-8.12-2.98-13.066-11.71-15.3-16.295-3.527-7.248-5.5-22.488 1.24-23.787"/><use xlink:href="#C"/></g><use xlink:href="#C" opacity=".3" class="V"/><use xlink:href="#D" class="U"/><use xlink:href="#D" opacity=".3" class="V"/><g class="S"><path d="M91.797 335.934a9.89 9.89 0 0 1-.332-1.6l-.67-4.392a56.44 56.44 0 0 1-.329-14.661 27.77 27.77 0 0 1 5.434-13.546c.92-1.175 1.977-2.235 3.15-3.16a11.3 11.3 0 0 1 .987-.7 1.35 1.35 0 0 1 .367-.21 27.9 27.9 0 0 0-4.216 4.3c-2.85 3.947-4.644 8.557-5.212 13.392a61.54 61.54 0 0 0 .181 14.549l.508 4.407a9.94 9.94 0 0 1 .134 1.62z"/><path d="M68.56 272.244c.125.197.232.405.318.622l.82 1.822 2.89 6.753c2.4 5.72 5.6 13.668 8.958 22.52s6.2 16.942 8.18 22.82l2.3 6.977.6 1.908a3.51 3.51 0 0 1 .173.676c-.11-.205-.2-.42-.27-.643l-.682-1.878-2.45-6.922-8.317-22.758-8.813-22.565-2.74-6.814-.73-1.86a3.45 3.45 0 0 1-.225-.66z"/><path d="M63.396 310.35c.52-.014 1.043.017 1.56.093a13.22 13.22 0 0 1 1.814.254 21.8 21.8 0 0 1 2.373.519l1.364.378c.473.136.946.333 1.447.507a32.13 32.13 0 0 1 3.119 1.316c4.673 2.28 8.76 5.602 11.948 9.7.7.894 1.333 1.824 1.926 2.785.273.454.563.878.793 1.313l.65 1.258c.372.72.704 1.46.994 2.216a13.28 13.28 0 0 1 .62 1.725 9.14 9.14 0 0 1 .409 1.506c-.116.04-.688-2.122-2.346-5.28l-.67-1.227c-.236-.424-.53-.838-.808-1.28-.538-.9-1.235-1.777-1.94-2.72a35.14 35.14 0 0 0-11.786-9.579c-1.067-.5-2.068-1-3.058-1.342-.492-.18-.956-.385-1.42-.53l-1.34-.4c-3.43-.98-5.664-1.095-5.65-1.22z"/></g><use xlink:href="#E" class="U"/><use xlink:href="#E" y="-0.001" opacity=".3"/><path d="M96.103 328.723a2.93 2.93 0 0 1-.336.865c-.37.76-.806 1.485-1.3 2.17a17.5 17.5 0 0 1-14.378 7.341c-.844-.003-1.686-.077-2.518-.222a2.9 2.9 0 0 1-.9-.235c.013-.093 1.3.162 3.4.094a18.43 18.43 0 0 0 14.092-7.195c1.292-1.66 1.843-2.86 1.93-2.818zm9.212 19.69c-.324-.016-.644-.083-.947-.2a11.11 11.11 0 0 1-2.408-1.084 12.42 12.42 0 0 1-5.281-15.268 11.05 11.05 0 0 1 1.224-2.34 3.01 3.01 0 0 1 .62-.742 25.29 25.29 0 0 0-1.5 3.206c-1.973 5.536.16 11.7 5.13 14.834a25.09 25.09 0 0 0 3.161 1.594zm-7.493 8.676a17.39 17.39 0 0 0-.613-4.32 13.3 13.3 0 0 0-2.179-4.155c-1.188-1.52-2.657-2.8-4.328-3.766a16.55 16.55 0 0 0-10.148-1.95 33.7 33.7 0 0 0-4.285.941 4.52 4.52 0 0 1 1.084-.5 15.78 15.78 0 0 1 3.153-.8 16.2 16.2 0 0 1 10.454 1.866 15 15 0 0 1 4.447 3.923 13.03 13.03 0 0 1 2.15 4.341c.294 1.053.428 2.143.4 3.236a4.25 4.25 0 0 1-.135 1.184z" class="c"/><g class="S"><use xlink:href="#F"/><use xlink:href="#G"/><use xlink:href="#H"/><use xlink:href="#I"/><path d="M283.845 174.6c-.343-.853-.557-1.753-.633-2.67a9.19 9.19 0 0 1 .633 2.669zm-2.505 5.2a34.7 34.7 0 0 1-5.293.8 35.08 35.08 0 0 1 5.293-.8z"/><use xlink:href="#J"/><use xlink:href="#K"/><use xlink:href="#L"/></g><path d="M271.442 174.034l-.034.155c-.6 2.736 1.095 5.447 3.81 6.13l8.454 2.1 2.94-9.027-8.312-3.096a5.18 5.18 0 0 0-6.858 3.737z" class="T"/><g class="S"><use xlink:href="#F"/><use xlink:href="#G"/><use xlink:href="#H"/><use xlink:href="#I"/><path d="M283.845 174.6c-.343-.853-.557-1.753-.633-2.67a9.19 9.19 0 0 1 .633 2.669zm-2.505 5.2a34.7 34.7 0 0 1-5.293.8 35.08 35.08 0 0 1 5.293-.8z"/><use xlink:href="#J"/><use xlink:href="#K"/><use xlink:href="#L"/><path d="M284.356 172.16l-3.5 10.228 16.514 5.208c1.565.37 3.154-.52 3.654-2.05l1.046-3.2c.494-1.51-.236-3.147-1.688-3.8z"/></g><path d="M286.465 178.225h.294a2.4 2.4 0 0 1 2.4 2.4v38.8h-5.094v-38.8a2.4 2.4 0 0 1 2.4-2.4z" class="T"/><g class="S"><path d="M288.248 181.324c0 .904-.732 1.636-1.636 1.636s-1.636-.732-1.636-1.636.732-1.636 1.636-1.636a1.63 1.63 0 0 1 1.157.48 1.64 1.64 0 0 1 .48 1.157zm11.572 2.77l4.756 1.407.352-1.407-5.108-1.5z"/><path d="M323.88 219.772c.215.337.398.694.545 1.066.443 1.064.716 2.2.808 3.34.147 1.825-.092 3.66-.7 5.387a13.84 13.84 0 0 1-1.513 3.059c-.718 1.052-1.514 2.05-2.38 2.984-1.75 1.988-3.975 3.986-5.232 6.817-.667 1.437-.956 3.02-.84 4.6a5.33 5.33 0 0 0 2.465 4.062 5.51 5.51 0 0 0 4.96.462 6.1 6.1 0 0 0 3.337-4.034c.523-1.836.424-3.792-.28-5.566a16.8 16.8 0 0 0-3.126-4.992c-2.608-3.03-5.89-5.546-7.548-9.158a11.77 11.77 0 0 1-.959-5.617 28.9 28.9 0 0 1 .988-5.352c.912-3.394 1.882-6.617 1.75-9.73-.1-2.882-.74-5.72-1.892-8.363-.943-2.19-2.137-4.26-3.557-6.175-1.068-1.452-2.22-2.84-3.45-4.158-1.01-1.1-1.83-1.9-2.386-2.453l-.63-.628a1.3 1.3 0 0 1-.2-.227c.087.054.167.117.24.19l.667.59c.58.528 1.424 1.318 2.46 2.39a43.51 43.51 0 0 1 3.536 4.124 30.59 30.59 0 0 1 3.66 6.2 23.16 23.16 0 0 1 1.985 8.5c.152 3.192-.824 6.486-1.718 9.86-.482 1.72-.803 3.48-.957 5.26a11.3 11.3 0 0 0 .928 5.38c1.585 3.457 4.814 5.95 7.48 9.032 1.367 1.513 2.456 3.256 3.215 5.148.74 1.877.84 3.946.285 5.886-.494 1.92-1.827 3.518-3.63 4.346-1.778.7-3.785.51-5.4-.512a5.79 5.79 0 0 1-2.663-4.418 9.7 9.7 0 0 1 .9-4.824c.65-1.387 1.5-2.67 2.524-3.81.955-1.107 1.933-2.1 2.828-3.08a25.4 25.4 0 0 0 2.377-2.921 13.61 13.61 0 0 0 1.514-2.974 13.04 13.04 0 0 0 .774-5.276c-.07-1.133-.305-2.25-.7-3.315-.284-.73-.488-1.088-.46-1.102z"/></g><path d="M376.72 174.034l.034.155c.6 2.736-1.095 5.448-3.8 6.13l-8.454 2.1-2.94-9.027 8.3-3.096a5.18 5.18 0 0 1 6.861 3.737z" class="T"/><g class="S"><path d="M373.902 179.9a7.21 7.21 0 0 1 .252-1.139l.667-2.73.612-2.742c.062-.385.155-.764.28-1.133a6.17 6.17 0 0 1-.137 1.16l-.555 2.762-.728 2.72a6.05 6.05 0 0 1-.391 1.1zm-2.385.837c-.056-.01.32-2.3.836-5.1l1.04-5.065c.055.01-.32 2.294-.837 5.1l-1.038 5.065zm-2.937.527c-.056-.012.412-2.513 1.043-5.588l1.246-5.546c.056.01-.412 2.513-1.044 5.587l-1.245 5.547zm-2.18-2.18a6.21 6.21 0 0 1 .089-1.187l.442-2.835.62-2.8a6.21 6.21 0 0 1 .35-1.138 7.35 7.35 0 0 1-.206 1.17l-.56 2.808-.5 2.817a7.55 7.55 0 0 1-.234 1.164z"/><path d="M364.314 174.6a9.21 9.21 0 0 1 .634-2.67 9.23 9.23 0 0 1-.634 2.669zm2.504 5.2a35.03 35.03 0 0 1 5.293.8 34.7 34.7 0 0 1-5.293-.8z"/><path d="M365.182 176.834c.01-.056 2.365.3 5.26.8l5.226 1c-.01.052-2.364-.3-5.26-.8l-5.226-1zm-1.268-2.764c.008-.056 2.94.318 6.545.835l6.516 1.038c-.008.057-2.94-.317-6.546-.834l-6.515-1.04z"/><path d="M366.548 171.577c.008-.056 2.216.212 4.932.6l4.9.8c-.01.053-2.216-.212-4.932-.6l-4.9-.8zm-2.746.583l3.5 10.228-16.514 5.208c-1.566.37-3.154-.52-3.654-2.05l-1.046-3.2a3.11 3.11 0 0 1 1.687-3.8z"/></g><path d="M364.092 219.425H359v-38.8a2.4 2.4 0 0 1 2.4-2.4h.293a2.4 2.4 0 0 1 2.4 2.4v38.8z" class="T"/><g class="S"><path d="M359.9 181.324c0 .904.732 1.636 1.636 1.636s1.636-.732 1.636-1.636-.732-1.636-1.636-1.636a1.63 1.63 0 0 0-1.157.48 1.64 1.64 0 0 0-.48 1.157zm-11.565 2.77l-4.756 1.407-.353-1.407 5.108-1.5z"/><path d="M334.6 223.09c.023.08.035.163.034.246l.048.723.168 2.778c.16 2.412.434 5.9 1.014 10.18a141.47 141.47 0 0 0 1.123 6.971c.152 1.28.515 2.526 1.075 3.687.305.564.8 1 1.4 1.23.62.21 1.297.165 1.884-.122.622-.285 1.156-.73 1.547-1.292a5.03 5.03 0 0 0 .756-1.959 20.82 20.82 0 0 0 .028-4.51l-.5-9.617-1.655-33.754c-.085-2.16-.23-4.113-.18-5.843.006-1.484.247-2.957.713-4.366a6.87 6.87 0 0 1 1.422-2.4 3.96 3.96 0 0 1 .73-.647c.022.024-.246.23-.652.715a7.13 7.13 0 0 0-1.31 2.4c-.424 1.396-.632 2.85-.615 4.308-.024 1.706.147 3.658.256 5.817l1.806 33.746.488 9.618c.153 1.54.137 3.1-.048 4.625a5.51 5.51 0 0 1-.843 2.148 4.31 4.31 0 0 1-1.751 1.447c-.7.333-1.502.378-2.234.125-.696-.27-1.273-.78-1.628-1.437-.58-1.21-.953-2.507-1.1-3.84a128.68 128.68 0 0 1-1.066-7c-.534-4.3-.753-7.8-.852-10.215l-.072-2.785v-.726a.9.9 0 0 1 .014-.251z"/><path d="M512.752 358.534L495.37 224.4h6.11v-4.974H161.43v4.974h9.9c0 1.4-28.72 134.134-28.72 134.134h4.985l29.91-134.134h311.266l17.705 134.134z"/></g><defs ><path id="B" d="M570.075 212.05l-4.017 7.274c-.094.17-.217.36-.41.376-.21.018-.368-.183-.484-.36l-10.62-16.3 2.446-1.386z"/><path id="C" d="M91.73 310.07a12.79 12.79 0 0 1-.489-12.835 16.99 16.99 0 0 1 10.3-8.136c1.992-.593 4.3-.83 6.02.34a5.47 5.47 0 0 1 2.062 5.148 11.1 11.1 0 0 1-2.387 5.243c-4.006 5.328-8.86 9.747-15.508 10.24"/><path id="D" d="M83.065 318.057a29.93 29.93 0 0 0-23.52-13.944c-2.41-.124-5.3.34-6.326 2.524s.46 4.72 2.137 6.462a25.57 25.57 0 0 0 27.811 5.6"/><path id="E" d="M76.34 328.646h29.25v16.963a12.29 12.29 0 0 1-12.288 12.288H88.63a12.29 12.29 0 0 1-12.288-12.288v-16.963z"/><path id="F" d="M274.255 179.89a6.11 6.11 0 0 1-.391-1.1l-.728-2.72-.555-2.762a5.97 5.97 0 0 1-.137-1.16 7.23 7.23 0 0 1 .279 1.133l.613 2.742.667 2.73a7.11 7.11 0 0 1 .252 1.139z"/><path id="G" d="M276.645 180.727c-.056.01-.52-2.258-1.04-5.064l-.837-5.1c.055-.008.52 2.257 1.04 5.065l.838 5.1z"/><path id="H" d="M279.58 181.254c-.055.012-.613-2.472-1.246-5.546l-1.043-5.587c.057-.01.613 2.472 1.245 5.546l1.044 5.587z"/><path id="I" d="M281.768 179.073a7.42 7.42 0 0 1-.233-1.166l-.5-2.817-.56-2.808a7.41 7.41 0 0 1-.207-1.171c.152.368.27.75.35 1.138l.62 2.8.442 2.835a6.37 6.37 0 0 1 .089 1.189z"/><path id="J" d="M282.975 176.834c.01.056-2.33.505-5.226 1l-5.262.8c-.01-.057 2.33-.505 5.226-1l5.262-.8z"/><path id="K" d="M284.243 174.07c.01.056-2.91.52-6.515 1.04l-6.545.834c-.008-.056 2.908-.52 6.516-1.038l6.544-.835z"/><path id="L" d="M281.61 171.577c.008.056-2.188.416-4.9.8l-4.933.6c-.01-.056 2.188-.416 4.9-.8l4.933-.6z"/></defs></svg>